M48
METRIC,0000.00
T01C0.483
T02C0.92
T03C1.1
T04C1.14
T05C2.3
T06C3.0
%
T01
X+002126Y+004683
X+002270Y+004438
X+002454Y+004302
X+002778Y+004175
X+003003Y+004175
X+003066Y+003792
X+002939Y+003374
X+003066Y+003334
X+003262Y+003374
X+003389Y+003374
X+003262Y+003144
X+003389Y+002714
X+003685Y+002910
X+003871Y+003159
X+004062Y+003389
X+004241Y+002524
X+003710Y+001889
X+002948Y+002493
X+002587Y+002588
X+002460Y+002397
X+002206Y+002524
X+001815Y+002334
X+001897Y+002151
X+001500Y+001946
X+002099Y+003180
X+002454Y+003180
X+002617Y+003654
X+001977Y+003859
X+001777Y+003763
X+001672Y+003670
X+001650Y+004302
X+001609Y+004565
X+004835Y+001344
T02
X+002524Y+001889
X+002524Y+001689
X+002274Y+001689
X+002274Y+001889
T03
X+004556Y+003667
X+004302Y+003667
X+004302Y+003921
X+004556Y+003921
X+004048Y+001381
X+003794Y+001381
X+003540Y+001381
T04
X+004429Y+002778
X+004429Y+002524
X+004429Y+002270
X+004683Y+002270
X+004683Y+002524
X+004683Y+002778
T05
X+001797Y+001418
X+003001Y+001418
T06
X+004556Y+004556
X+004556Y+001508
T00
M30
