G04 DipTrace 3.0.0.0*
G04 Top.gbr*
%MOMM*%
G04 #@! TF.FileFunction,Copper,L1,Top*
G04 #@! TF.Part,Single*
%AMOUTLINE0*
4,1,4,
0.85,0.25,
0.85,-0.25,
-0.85,-0.25,
-0.85,0.25,
0.85,0.25,
0*%
%AMOUTLINE3*
4,1,4,
0.25,-0.85,
-0.25,-0.85,
-0.25,0.85,
0.25,0.85,
0.25,-0.85,
0*%
%AMOUTLINE6*
4,1,4,
-0.75,0.65,
0.75,0.65,
0.75,-0.65,
-0.75,-0.65,
-0.75,0.65,
0*%
%AMOUTLINE9*5,1,4,0,0,1.69706,-45.0*%
%AMOUTLINE12*5,1,4,0,0,2.47487,-225.0*%
%AMOUTLINE15*5,1,4,0,0,2.40416,-135.0*%
%AMOUTLINE18*
4,1,4,
0.75,-0.65,
-0.75,-0.65,
-0.75,0.65,
0.75,0.65,
0.75,-0.65,
0*%
G04 #@! TA.AperFunction,Conductor*
%ADD13C,0.381*%
%ADD17R,3.15X1.6*%
G04 #@! TA.AperFunction,ComponentPad*
%ADD19R,1.6X1.6*%
%ADD20C,1.6*%
%ADD21C,3.5*%
%ADD22R,2.54X1.27*%
G04 #@! TA.AperFunction,ComponentPad*
%ADD23C,1.75*%
%ADD24C,1.7*%
%ADD25R,1.7X1.7*%
%ADD26R,1.3X1.5*%
%ADD28R,5.5X2.0*%
G04 #@! TA.AperFunction,ViaPad*
%ADD29C,1.016*%
%ADD62OUTLINE0*%
%ADD65OUTLINE3*%
%ADD68OUTLINE6*%
%ADD71OUTLINE9*%
G04 #@! TA.AperFunction,ComponentPad*
%ADD74OUTLINE12*%
%ADD77OUTLINE15*%
%ADD80OUTLINE18*%
%FSLAX35Y35*%
G04*
G71*
G90*
G75*
G01*
G04 Top*
%LPD*%
X1649800Y4302000D2*
D13*
X1990000D1*
X4302000Y3921000D2*
X4061960D1*
X3997960Y3985000D1*
X3794000D1*
X4048000Y1381000D2*
X4177450Y1510450D1*
Y2206500D1*
X4113950Y2270000D1*
X3903000D1*
X2778000Y3319000D2*
X2147450D1*
X2067450Y3399000D1*
X1938000D1*
X1815160Y2334300D2*
X2021800D1*
X3286000Y3985000D2*
X3034450D1*
X2970950Y3921500D1*
Y3542497D1*
X2907453Y3479000D1*
X2778000D1*
X3794000Y3985000D2*
X3286000D1*
X1938000Y3399000D2*
X1713310D1*
X1672333Y3439977D1*
Y3670110D1*
X2126200Y4683000D2*
X1990000D1*
X1254000Y4683020D2*
X1502450D1*
Y4469640D1*
X1704130D1*
Y4787450D1*
X1767630Y4850950D1*
X2574500D1*
X2638000Y4787450D1*
Y3859000D1*
X1254000Y4406160D2*
X1767630D1*
Y4723950D1*
X1831130Y4787450D1*
X2494500D1*
X2558000Y4723950D1*
Y3859000D1*
X1254000Y4129300D2*
Y4136013D1*
X1357670D1*
X1411720Y4190063D1*
X2353717D1*
X2478000Y4065780D1*
Y3859000D1*
X1254000Y3852440D2*
X1389790D1*
X1657597Y4120247D1*
X2287820D1*
X2398000Y4010067D1*
Y3859000D1*
X2318000D2*
Y3981963D1*
X2247280Y4052683D1*
X1702143D1*
X1436497Y3787037D1*
Y3586607D1*
X1425470Y3575580D1*
X1254000D1*
X2238000Y3859000D2*
Y3949350D1*
X2204487Y3982863D1*
X1751800D1*
X1537843Y3768907D1*
Y3582563D1*
X1254000Y3298720D1*
Y3021860D2*
X1430560D1*
X1647700Y3239000D1*
X1938000D1*
Y3159000D2*
X1712030D1*
X1298030Y2745000D1*
X1254000D1*
X2078000Y3019000D2*
Y2824250D1*
X2014500Y2760750D1*
X1591080D1*
X1298470Y2468140D1*
X1254000D1*
X2158000Y3019000D2*
Y2760750D1*
X2094500Y2697250D1*
X1656410D1*
X1592910Y2633750D1*
Y2254760D1*
X1529430Y2191280D1*
X1254000D1*
X2558000Y3019000D2*
Y2809750D1*
X3551450D1*
X3614950Y2746250D1*
Y1984250D1*
X3220450Y1589750D1*
Y1262050D1*
X3156950Y1198550D1*
X1539310D1*
X1377160Y1360700D1*
X1254000D1*
X4556000Y3921000D2*
X4685450Y3791550D1*
Y3341950D1*
X4621950Y3278450D1*
X3313300D1*
X3273850Y3239000D1*
X2778000D1*
X1254000Y1914420D2*
X1298450D1*
X1459593Y2057700D1*
X1609210D1*
X1656410Y2104900D1*
Y2570250D1*
X1719910Y2633750D1*
X2174500D1*
X2238000Y2697250D1*
Y3019000D1*
X2616800Y3654250D2*
X2221500D1*
X2158000Y3717750D1*
Y3859000D1*
X4683000Y2524000D2*
X4834947Y2372053D1*
Y1343607D1*
X1976800Y3859000D2*
X2078000D1*
X2454310Y3180200D2*
X2099200D1*
X4240950Y2524000D2*
Y2846450D1*
X4304450Y2909950D1*
X4736950D1*
X4800450Y2973450D1*
Y4850950D1*
X4736950Y4914450D1*
X1672380D1*
X1608880Y4850950D1*
Y4564890D1*
X1776800Y3763050D2*
X1783550D1*
X1827600Y3719000D1*
X1938000D1*
X3388810Y2714500D2*
X2541500D1*
X2478000Y2778000D1*
Y3019000D1*
X3388810Y3373700D2*
Y3540000D1*
X3540000D1*
X2318000Y3019000D2*
Y2344690D1*
X1610870Y1637560D1*
X1254000D1*
X3261810Y3373700D2*
Y3595950D1*
X3325310Y3659450D1*
X3905510D1*
X4027410Y3537550D1*
X4426550D1*
X4556000Y3667000D1*
X3261810Y3143750D2*
X3246560Y3159000D1*
X2778000D1*
X1797000Y1418000D2*
X3001000D1*
X2454310Y4302000D2*
X2270000D1*
X3066200Y3334250D2*
Y3791550D1*
X4061700Y3388810D2*
X3730000D1*
Y3540000D1*
X2206490Y2524300D2*
X2021800D1*
X2948250Y2492750D2*
X2917000Y2524000D1*
X2778000D1*
X2270000Y4438200D2*
Y4683000D1*
X3871200Y3159000D2*
X3730000D1*
X2638000Y3019000D2*
Y2873250D1*
X3476500D1*
X3540000Y2936750D1*
Y3159000D1*
X2524000Y1889000D2*
X2778000Y2143000D1*
Y2334000D1*
X2650990D1*
X2587490Y2397500D1*
Y2588000D1*
X2778000Y3399000D2*
X2604110D1*
X2540610Y3462500D1*
Y3506960D1*
X2199490D1*
X2067450Y3639000D1*
X1938000D1*
X2778000Y2334000D2*
X2936140D1*
X3000140Y2270000D1*
X3413000D1*
X2540610Y3506960D2*
X2592650Y3559000D1*
X2778000D1*
X2939200Y3373700D2*
X2913900Y3399000D1*
X2778000D1*
X3710200Y1889000D2*
X3684630Y1914570D1*
Y2909950D1*
X2778000Y3719000D2*
Y4175000D1*
X3002700D2*
X3286000D1*
X2778000D2*
Y4347950D1*
X2701500Y4424450D1*
Y4683000D1*
X3032000D1*
X3982000D2*
X3599050D1*
Y4572520D1*
X3794000Y4377570D1*
Y4175000D1*
X3514900D1*
X3405450Y4284450D1*
X2970950D1*
X2907450Y4220950D1*
Y3639000D1*
X2778000D1*
X1499980Y1946150D2*
X1652867D1*
X1857610Y2150893D1*
X1897027D1*
X2460490Y2397500D2*
X2398000Y2459990D1*
Y3019000D1*
D29*
X2126200Y4683000D3*
X1815160Y2334300D3*
X1672333Y3670110D3*
X1649800Y4302000D3*
X2616800Y3654250D3*
X4834947Y1343607D3*
X1976800Y3859000D3*
X2099200Y3180200D3*
X2454310D3*
X1776800Y3763050D3*
X1608880Y4564890D3*
X4240950Y2524000D3*
X3388810Y2714500D3*
Y3373700D3*
X2454310Y4302000D3*
X2948250Y2492750D3*
X3066200Y3791550D3*
Y3334250D3*
X4061700Y3388810D3*
X2206490Y2524300D3*
X2270000Y4438200D3*
X3871200Y3159000D3*
X2587490Y2588000D3*
X2939200Y3373700D3*
X3684630Y2909950D3*
X3710200Y1889000D3*
X3002700Y4175000D3*
X2778000D3*
X1897027Y2150893D3*
X1499980Y1946150D3*
X2460490Y2397500D3*
X3261810Y3143750D3*
Y3373700D3*
D62*
X2778000Y3159000D3*
Y3239000D3*
Y3319000D3*
Y3399000D3*
Y3479000D3*
Y3559000D3*
Y3639000D3*
Y3719000D3*
D65*
X2638000Y3859000D3*
X2558000D3*
X2478000D3*
X2398000D3*
X2318000D3*
X2238000D3*
X2158000D3*
X2078000D3*
D62*
X1938000Y3719000D3*
Y3639000D3*
Y3559000D3*
Y3479000D3*
Y3399000D3*
Y3319000D3*
Y3239000D3*
Y3159000D3*
D65*
X2078000Y3019000D3*
X2158000D3*
X2238000D3*
X2318000D3*
X2398000D3*
X2478000D3*
X2558000D3*
X2638000D3*
D17*
X3413000Y2270000D3*
X3903000D3*
D68*
X3286000Y4175000D3*
Y3985000D3*
X3794000Y4175000D3*
Y3985000D3*
D71*
X2270000Y4683000D3*
X1990000D3*
X2270000Y4302000D3*
X1990000D3*
D19*
X2524000Y1889000D3*
D20*
X2274000D3*
Y1689000D3*
X2524000D3*
D21*
X1797000Y1418000D3*
X3001000D3*
D22*
X1254000Y4683020D3*
Y4406160D3*
Y4129300D3*
Y3852440D3*
Y3575580D3*
Y3298720D3*
Y3021860D3*
Y2745000D3*
Y2468140D3*
Y2191280D3*
Y1914420D3*
Y1637560D3*
Y1360700D3*
D74*
X4429000Y2778000D3*
D23*
Y2524000D3*
Y2270000D3*
X4683000D3*
Y2524000D3*
Y2778000D3*
D77*
X4556000Y3667000D3*
D24*
X4302000D3*
X4556000Y3921000D3*
X4302000D3*
D25*
X3540000Y1381000D3*
D24*
X3794000D3*
X4048000D3*
D26*
X3540000Y3540000D3*
X3730000D3*
X3540000Y3159000D3*
X3730000D3*
D68*
X2778000Y2524000D3*
Y2334000D3*
D80*
X2021800Y2334300D3*
Y2524300D3*
D28*
X3032000Y4683000D3*
X3982000D3*
M02*
