G04 DipTrace 3.0.0.0*
G04 TopMask.gbr*
%MOMM*%
G04 #@! TF.FileFunction,Soldermask,Top*
G04 #@! TF.Part,Single*
%AMOUTLINE1*
4,1,4,
0.95,0.35,
0.95,-0.35,
-0.95,-0.35,
-0.95,0.35,
0.95,0.35,
0*%
%AMOUTLINE4*
4,1,4,
0.35,-0.95,
-0.35,-0.95,
-0.35,0.95,
0.35,0.95,
0.35,-0.95,
0*%
%AMOUTLINE7*
4,1,4,
-0.85,0.75,
0.85,0.75,
0.85,-0.75,
-0.85,-0.75,
-0.85,0.75,
0*%
%AMOUTLINE10*5,1,4,0,0,1.9799,-45.0*%
%AMOUTLINE13*5,1,4,0,0,2.75772,-225.0*%
%AMOUTLINE16*5,1,4,0,0,2.68701,-135.0*%
%AMOUTLINE19*
4,1,4,
0.85,-0.75,
-0.85,-0.75,
-0.85,0.75,
0.85,0.75,
0.85,-0.75,
0*%
%ADD31C,3.0*%
%ADD39R,5.7X2.2*%
%ADD41R,1.5X1.7*%
%ADD43R,1.9X1.9*%
%ADD45C,1.9*%
%ADD47C,1.95*%
%ADD49R,2.74X1.47*%
%ADD51C,3.7*%
%ADD53C,1.8*%
%ADD55R,1.8X1.8*%
%ADD57R,3.35X1.8*%
%ADD63OUTLINE1*%
%ADD66OUTLINE4*%
%ADD69OUTLINE7*%
%ADD72OUTLINE10*%
%ADD75OUTLINE13*%
%ADD78OUTLINE16*%
%ADD81OUTLINE19*%
%FSLAX35Y35*%
G04*
G71*
G90*
G75*
G01*
G04 TopMask*
%LPD*%
D63*
X2778000Y3159000D3*
Y3239000D3*
Y3319000D3*
Y3399000D3*
Y3479000D3*
Y3559000D3*
Y3639000D3*
Y3719000D3*
D66*
X2638000Y3859000D3*
X2558000D3*
X2478000D3*
X2398000D3*
X2318000D3*
X2238000D3*
X2158000D3*
X2078000D3*
D63*
X1938000Y3719000D3*
Y3639000D3*
Y3559000D3*
Y3479000D3*
Y3399000D3*
Y3319000D3*
Y3239000D3*
Y3159000D3*
D66*
X2078000Y3019000D3*
X2158000D3*
X2238000D3*
X2318000D3*
X2398000D3*
X2478000D3*
X2558000D3*
X2638000D3*
D57*
X3413000Y2270000D3*
X3903000D3*
D69*
X3286000Y4175000D3*
Y3985000D3*
X3794000Y4175000D3*
Y3985000D3*
D72*
X2270000Y4683000D3*
X1990000D3*
X2270000Y4302000D3*
X1990000D3*
D55*
X2524000Y1889000D3*
D53*
X2274000D3*
Y1689000D3*
X2524000D3*
D51*
X1797000Y1418000D3*
X3001000D3*
D49*
X1254000Y4683020D3*
Y4406160D3*
Y4129300D3*
Y3852440D3*
Y3575580D3*
Y3298720D3*
Y3021860D3*
Y2745000D3*
Y2468140D3*
Y2191280D3*
Y1914420D3*
Y1637560D3*
Y1360700D3*
D75*
X4429000Y2778000D3*
D47*
Y2524000D3*
Y2270000D3*
X4683000D3*
Y2524000D3*
Y2778000D3*
D78*
X4556000Y3667000D3*
D45*
X4302000D3*
X4556000Y3921000D3*
X4302000D3*
D43*
X3540000Y1381000D3*
D45*
X3794000D3*
X4048000D3*
D31*
X4556000Y4556000D3*
Y1508000D3*
D41*
X3540000Y3540000D3*
X3730000D3*
X3540000Y3159000D3*
X3730000D3*
D69*
X2778000Y2524000D3*
Y2334000D3*
D81*
X2021800Y2334300D3*
Y2524300D3*
D39*
X3032000Y4683000D3*
X3982000D3*
M02*
