G04 DipTrace 3.0.0.0*
G04 TopPaste.gbr*
%MOMM*%
G04 #@! TF.FileFunction,Paste,Top*
G04 #@! TF.Part,Single*
%AMOUTLINE2*
4,1,4,
0.75,0.15,
0.75,-0.15,
-0.75,-0.15,
-0.75,0.15,
0.75,0.15,
0*%
%AMOUTLINE5*
4,1,4,
0.15,-0.75,
-0.15,-0.75,
-0.15,0.75,
0.15,0.75,
0.15,-0.75,
0*%
%AMOUTLINE8*
4,1,4,
-0.65,0.55,
0.65,0.55,
0.65,-0.55,
-0.65,-0.55,
-0.65,0.55,
0*%
%AMOUTLINE11*5,1,4,0,0,1.41421,-45.0*%
%AMOUTLINE20*
4,1,4,
0.65,-0.55,
-0.65,-0.55,
-0.65,0.55,
0.65,0.55,
0.65,-0.55,
0*%
%ADD40R,5.3X1.8*%
%ADD42R,1.1X1.3*%
%ADD50R,2.34X1.07*%
%ADD58R,2.95X1.4*%
%ADD64OUTLINE2*%
%ADD67OUTLINE5*%
%ADD70OUTLINE8*%
%ADD73OUTLINE11*%
%ADD82OUTLINE20*%
%FSLAX35Y35*%
G04*
G71*
G90*
G75*
G01*
G04 TopPaste*
%LPD*%
D64*
X2778000Y3159000D3*
Y3239000D3*
Y3319000D3*
Y3399000D3*
Y3479000D3*
Y3559000D3*
Y3639000D3*
Y3719000D3*
D67*
X2638000Y3859000D3*
X2558000D3*
X2478000D3*
X2398000D3*
X2318000D3*
X2238000D3*
X2158000D3*
X2078000D3*
D64*
X1938000Y3719000D3*
Y3639000D3*
Y3559000D3*
Y3479000D3*
Y3399000D3*
Y3319000D3*
Y3239000D3*
Y3159000D3*
D67*
X2078000Y3019000D3*
X2158000D3*
X2238000D3*
X2318000D3*
X2398000D3*
X2478000D3*
X2558000D3*
X2638000D3*
D58*
X3413000Y2270000D3*
X3903000D3*
D70*
X3286000Y4175000D3*
Y3985000D3*
X3794000Y4175000D3*
Y3985000D3*
D73*
X2270000Y4683000D3*
X1990000D3*
X2270000Y4302000D3*
X1990000D3*
D50*
X1254000Y4683020D3*
Y4406160D3*
Y4129300D3*
Y3852440D3*
Y3575580D3*
Y3298720D3*
Y3021860D3*
Y2745000D3*
Y2468140D3*
Y2191280D3*
Y1914420D3*
Y1637560D3*
Y1360700D3*
D42*
X3540000Y3540000D3*
X3730000D3*
X3540000Y3159000D3*
X3730000D3*
D70*
X2778000Y2524000D3*
Y2334000D3*
D82*
X2021800Y2334300D3*
Y2524300D3*
D40*
X3032000Y4683000D3*
X3982000D3*
M02*
