M48
METRIC,0000.00
T01C0.483
T02C0.92
T03C1.1
T04C1.14
T05C2.3
T06C3.0
%
T01
X+004878Y+003506
X+004783Y+002942
X+003935Y+003207
X+003825Y+002942
X+003540Y+002953
X+003254Y+002858
X+003413Y+002459
X+003540Y+001879
X+003635Y+001542
X+003227Y+001685
X+002648Y+002140
X+002619Y+002436
X+002588Y+003180
X+002445Y+003448
X+002318Y+003414
X+002158Y+003639
X+001963Y+003915
X+001872Y+003820
X+001777Y+003639
X+001777Y+003414
X+001581Y+003370
X+001693Y+004020
X+002031Y+004122
X+002126Y+004313
X+001990Y+004459
X+002406Y+004302
X+002423Y+004122
X+002333Y+004020
X+002463Y+004683
X+003286Y+003844
X+003225Y+003392
X+003130Y+003302
X+001871Y+002611
X+001636Y+002288
X+003921Y+002045
T02
X+002524Y+001889
X+002524Y+001689
X+002274Y+001689
X+002274Y+001889
T03
X+004556Y+003667
X+004302Y+003667
X+004302Y+003921
X+004556Y+003921
X+004048Y+001381
X+003794Y+001381
X+003540Y+001381
T04
X+004429Y+002778
X+004429Y+002524
X+004429Y+002270
X+004683Y+002270
X+004683Y+002524
X+004683Y+002778
T05
X+001797Y+001418
X+003001Y+001418
T06
X+004556Y+001508
X+004556Y+004556
T00
M30
