G04 DipTrace 3.0.0.0*
G04 TopAssy.gbr*
%MOMM*%
G04 #@! TF.FileFunction,Drawing,Top*
G04 #@! TF.Part,Single*
%ADD10C,0.25*%
%ADD75C,0.07843*%
%FSLAX35Y35*%
G04*
G71*
G90*
G75*
G01*
G04 TopAssy*
%LPD*%
X3363998Y1076093D2*
D10*
X4223955D1*
X4276162Y1113799D2*
D75*
Y1062755D1*
X4298062D1*
X4305362Y1065226D1*
X4307777Y1067640D1*
X4310191Y1072469D1*
Y1079769D1*
X4307777Y1084655D1*
X4305362Y1087069D1*
X4298062Y1089484D1*
X4305362Y1091955D1*
X4307777Y1094369D1*
X4310191Y1099199D1*
Y1104084D1*
X4307777Y1108913D1*
X4305362Y1111384D1*
X4298062Y1113799D1*
X4276162D1*
Y1089484D2*
X4298062D1*
X4340477Y1113799D2*
X4335592Y1111384D1*
X4330763Y1106499D1*
X4328292Y1101669D1*
X4325877Y1094369D1*
Y1082184D1*
X4328292Y1074940D1*
X4330763Y1070055D1*
X4335592Y1065226D1*
X4340477Y1062755D1*
X4350192D1*
X4355021Y1065226D1*
X4359907Y1070055D1*
X4362321Y1074940D1*
X4364736Y1082184D1*
Y1094369D1*
X4362321Y1101669D1*
X4359907Y1106499D1*
X4355021Y1111384D1*
X4350192Y1113799D1*
X4340477D1*
X4419337Y1062755D2*
X4399851Y1113799D1*
X4380422Y1062755D1*
X4387722Y1079769D2*
X4412037D1*
X4435023Y1089484D2*
X4456867D1*
X4464167Y1091955D1*
X4466638Y1094369D1*
X4469052Y1099199D1*
Y1104084D1*
X4466638Y1108913D1*
X4464167Y1111384D1*
X4456867Y1113799D1*
X4435023D1*
Y1062755D1*
X4452038Y1089484D2*
X4469052Y1062755D1*
X4484739Y1113799D2*
Y1062755D1*
X4501753D1*
X4509053Y1065226D1*
X4513939Y1070055D1*
X4516353Y1074940D1*
X4518768Y1082184D1*
Y1094369D1*
X4516353Y1101669D1*
X4513939Y1106499D1*
X4509053Y1111384D1*
X4501753Y1113799D1*
X4484739D1*
X4615391D2*
X4583833D1*
Y1062755D1*
X4615391D1*
X4583833Y1089484D2*
X4603262D1*
X4631077Y1113799D2*
Y1062755D1*
X4648092D1*
X4655392Y1065226D1*
X4660277Y1070055D1*
X4662692Y1074940D1*
X4665107Y1082184D1*
Y1094369D1*
X4662692Y1101669D1*
X4660277Y1106499D1*
X4655392Y1111384D1*
X4648092Y1113799D1*
X4631077D1*
X4717237Y1101669D2*
X4714822Y1106499D1*
X4709937Y1111384D1*
X4705107Y1113799D1*
X4695393D1*
X4690507Y1111384D1*
X4685678Y1106499D1*
X4683207Y1101669D1*
X4680793Y1094369D1*
Y1082184D1*
X4683207Y1074940D1*
X4685678Y1070055D1*
X4690507Y1065226D1*
X4695393Y1062755D1*
X4705107D1*
X4709937Y1065226D1*
X4714822Y1070055D1*
X4717237Y1074940D1*
Y1082184D1*
X4705107D1*
X4764481Y1113799D2*
X4732923D1*
Y1062755D1*
X4764481D1*
X4732923Y1089484D2*
X4752352D1*
X4846561Y1127107D2*
X4841676Y1122278D1*
X4836846Y1114978D1*
X4831961Y1105263D1*
X4829546Y1093078D1*
Y1083363D1*
X4831961Y1071234D1*
X4836846Y1061519D1*
X4841676Y1054219D1*
X4846561Y1049390D1*
X4862247Y1096784D2*
Y1062755D1*
Y1087069D2*
X4869547Y1094369D1*
X4874433Y1096784D1*
X4881676D1*
X4886562Y1094369D1*
X4888976Y1087069D1*
Y1062755D1*
Y1087069D2*
X4896276Y1094369D1*
X4901162Y1096784D1*
X4908406D1*
X4913291Y1094369D1*
X4915762Y1087069D1*
Y1062755D1*
X4931448Y1113799D2*
X4933863Y1111384D1*
X4936333Y1113799D1*
X4933863Y1116269D1*
X4931448Y1113799D1*
X4933863Y1096784D2*
Y1062755D1*
X4952020Y1096784D2*
Y1062755D1*
Y1087069D2*
X4959320Y1094369D1*
X4964205Y1096784D1*
X4971449D1*
X4976334Y1094369D1*
X4978749Y1087069D1*
Y1062755D1*
X4994435Y1113799D2*
X4996850Y1111384D1*
X4999321Y1113799D1*
X4996850Y1116269D1*
X4994435Y1113799D1*
X4996850Y1096784D2*
Y1062755D1*
X5015007Y1096784D2*
Y1062755D1*
Y1087069D2*
X5022307Y1094369D1*
X5027192Y1096784D1*
X5034436D1*
X5039322Y1094369D1*
X5041736Y1087069D1*
Y1062755D1*
Y1087069D2*
X5049036Y1094369D1*
X5053922Y1096784D1*
X5061165D1*
X5066051Y1094369D1*
X5068522Y1087069D1*
Y1062755D1*
X5113352Y1096784D2*
Y1062755D1*
Y1089484D2*
X5108522Y1094369D1*
X5103637Y1096784D1*
X5096393D1*
X5091508Y1094369D1*
X5086679Y1089484D1*
X5084208Y1082184D1*
Y1077355D1*
X5086679Y1070055D1*
X5091508Y1065226D1*
X5096393Y1062755D1*
X5103637D1*
X5108522Y1065226D1*
X5113352Y1070055D1*
X5129038Y1113799D2*
Y1062755D1*
X5144724Y1127107D2*
X5149610Y1122278D1*
X5154439Y1114978D1*
X5159324Y1105263D1*
X5161739Y1093078D1*
Y1083363D1*
X5159324Y1071234D1*
X5154439Y1061519D1*
X5149610Y1054219D1*
X5144724Y1049390D1*
M02*
