G04 DipTrace 3.0.0.0*
G04 TopPaste.gbr*
%MOMM*%
G04 #@! TF.FileFunction,Paste,Top*
G04 #@! TF.Part,Single*
%ADD45R,5.3X1.8*%
%ADD47R,1.1X1.3*%
%ADD57R,2.34X1.07*%
%ADD64R,1.0X1.0*%
%ADD66R,1.3X1.1*%
%ADD68R,2.95X1.4*%
%ADD70R,0.3X1.5*%
%ADD72R,1.5X0.3*%
%FSLAX35Y35*%
G04*
G71*
G90*
G75*
G01*
G04 TopPaste*
%LPD*%
D72*
X2778000Y3159000D3*
Y3239000D3*
Y3319000D3*
Y3399000D3*
Y3479000D3*
Y3559000D3*
Y3639000D3*
Y3719000D3*
D70*
X2638000Y3859000D3*
X2558000D3*
X2478000D3*
X2398000D3*
X2318000D3*
X2238000D3*
X2158000D3*
X2078000D3*
D72*
X1938000Y3719000D3*
Y3639000D3*
Y3559000D3*
Y3479000D3*
Y3399000D3*
Y3319000D3*
Y3239000D3*
Y3159000D3*
D70*
X2078000Y3019000D3*
X2158000D3*
X2238000D3*
X2318000D3*
X2398000D3*
X2478000D3*
X2558000D3*
X2638000D3*
D68*
X3413000Y2270000D3*
X3903000D3*
D66*
X3286000Y4175000D3*
Y3985000D3*
X3794000Y4175000D3*
Y3985000D3*
D64*
X2270000Y4683000D3*
X1990000D3*
X2270000Y4302000D3*
X1990000D3*
D57*
X1254000Y4683000D3*
Y4406140D3*
Y4129280D3*
Y3852420D3*
Y3575560D3*
Y3298700D3*
Y3021840D3*
Y2744980D3*
Y2468120D3*
Y2191260D3*
Y1914400D3*
Y1637540D3*
Y1360680D3*
D47*
X3540000Y3540000D3*
X3730000D3*
X3540000Y3159000D3*
X3730000D3*
D66*
X2778000Y2524000D3*
Y2334000D3*
X2021840Y2334257D3*
Y2524257D3*
D45*
X3032000Y4683000D3*
X3982000D3*
M02*
