G04 DipTrace 3.0.0.0*
G04 Bottom.gbr*
%MOMM*%
G04 #@! TF.FileFunction,Copper,L2,Bot*
G04 #@! TF.Part,Single*
G04 #@! TA.AperFunction,Conductor*
%ADD13C,0.381*%
G04 #@! TA.AperFunction,ComponentPad*
%ADD22R,1.6X1.6*%
%ADD23C,1.6*%
%ADD24C,3.5*%
%ADD25R,2.54X1.27*%
G04 #@! TA.AperFunction,ComponentPad*
%ADD26R,1.75X1.75*%
%ADD27C,1.75*%
%ADD28R,1.5X1.5*%
%ADD29C,1.5*%
%ADD30R,1.4X1.4*%
%ADD31C,1.4*%
G04 #@! TA.AperFunction,ViaPad*
%ADD35C,1.016*%
%FSLAX35Y35*%
G04*
G71*
G90*
G75*
G01*
G04 Bottom*
%LPD*%
X1202840Y1370083D2*
D13*
X1392523D1*
Y1454327D1*
Y1646943D1*
X1202840D1*
X1395433D2*
Y1930693D1*
Y2203960D1*
Y2480820D1*
Y2757680D1*
Y2972250D1*
Y3593150D1*
Y3865120D1*
Y4138683D1*
Y4414100D1*
Y4515823D1*
X1816610Y4937000D1*
X3267000D1*
X1395433Y2480820D2*
X1202840D1*
Y2477523D1*
X1395433Y2203960D2*
X1202840D1*
Y2200663D1*
Y3308103D2*
X1393700D1*
Y3031243D1*
X1202840D1*
X1671250Y2972250D2*
X1395433D1*
X2397000Y4302000D2*
X2818560D1*
X1395433Y1930693D2*
X1202840D1*
Y1923803D1*
X1392523Y1454327D2*
X1762000Y1454000D1*
X1395433Y3593150D2*
X1202840D1*
Y3584963D1*
X1395433Y3865120D2*
Y3861823D1*
X1202840D1*
X1395433Y4414100D2*
X1202840D1*
Y4415543D1*
X2818560Y4302000D2*
X2983063Y4137500D1*
X3104310D1*
X3167810Y4201000D1*
X3530800D1*
X3413000Y4083200D1*
Y3626150D1*
X3569200Y3469950D1*
X3267000Y4937000D2*
X3444950Y5114950D1*
X3717950D1*
X3781450Y5051450D1*
Y4451650D1*
X3530800Y4201000D1*
X1395433Y2757680D2*
X1202840D1*
Y2754383D1*
X1163560D1*
X1202840Y2477523D2*
X1163560D1*
X1202840Y2200663D2*
X1163560D1*
X3104310Y4137500D2*
Y3428360D1*
X3029200Y3353250D1*
X1202840Y1923803D2*
X1163560D1*
X1762000Y1454000D2*
X1962000D1*
X1202840Y4138683D2*
X1395433D1*
X2493250Y3067500D2*
X1584200D1*
X1520700Y3131000D1*
Y4279140D1*
X2099200Y3162750D2*
X1615950D1*
Y3534450D1*
X2253250Y3639200D2*
Y3502700D1*
X2189750Y3439200D1*
X1976800D1*
X1615950Y4433950D2*
Y3724950D1*
X2027240Y4433950D2*
X2143000D1*
Y4302000D1*
X1889000Y3639210D2*
Y4048000D1*
X2099200Y3289750D2*
X1945050D1*
X1881550Y3353250D1*
Y3480460D1*
X1945050Y3543960D1*
X2079500D1*
X2143000Y3607460D1*
Y4048000D1*
X2905000Y3778200D2*
X2588500Y3461703D1*
Y2847450D1*
X3002700Y3480250D2*
X2845500D1*
X2782000Y3416750D1*
Y3321500D1*
X2845500Y3258000D1*
X2782000Y3194500D1*
Y2270000D1*
X2845500Y3258000D2*
Y3250963D1*
X3097273D1*
X3184297Y3337983D1*
Y4021793D1*
X3219700Y4057200D1*
X2782000Y2270000D2*
X2010200D1*
X1762000Y2021800D1*
X2619700Y2070000D2*
X2782000D1*
X2906450Y2194450D1*
Y2748097D1*
X3286000Y3127647D1*
Y3784800D1*
X3149197Y2551360D2*
X3189667D1*
Y2017993D1*
X3088107Y1916433D1*
X2585317D1*
X2492700Y2009050D1*
Y2143000D1*
X1711200Y3258000D2*
Y4124200D1*
X1889000Y4302000D1*
X3032000Y2270000D2*
Y2639550D1*
X3095500Y2703050D1*
X3404100D1*
X3562850Y2544300D1*
X1889000Y4302000D2*
Y4695550D1*
X1952500Y4759050D1*
X3489050D1*
X3667000Y4937000D1*
X3562850Y2544300D2*
X3664450Y2645900D1*
Y3647400D1*
X3781450Y3764400D1*
X2413250Y3316800D2*
X2397000Y3333050D1*
Y4048000D1*
X3759700Y2979950D2*
Y1603817D1*
X3631730Y1475847D1*
X2195967D1*
X1962000Y1241877D1*
Y1254000D1*
X2333250Y2457950D2*
X1584200D1*
X1520700Y2394450D1*
Y1549250D1*
X3250557Y1274227D2*
Y1279980D1*
X2351937D1*
X2201097Y1129140D1*
X1886860D1*
X1762000Y1254000D1*
X2305000Y1799000D2*
X3509000D1*
D35*
X3569200Y3469950D3*
X3029200Y3353250D3*
X1671250Y2972250D3*
X3530800Y4201000D3*
X2818560Y4302000D3*
X1520700Y4279140D3*
X2493250Y3067500D3*
X1615950Y3534450D3*
X2099200Y3162750D3*
X1976800Y3439200D3*
X2253250Y3639200D3*
X1615950Y3724950D3*
Y4433950D3*
X2027240D3*
X1889000Y3639210D3*
X2099200Y3289750D3*
X2588500Y2847450D3*
X2905000Y3778200D3*
X3002700Y3480250D3*
X3219700Y4057200D3*
X1762000Y2021800D3*
X3286000Y3784800D3*
X2619700Y2070000D3*
X2492700Y2143000D3*
X3149197Y2551360D3*
X3562850Y2544300D3*
X1711200Y3258000D3*
X3781450Y3764400D3*
X2413250Y3316800D3*
X3759700Y2979950D3*
X1520700Y1549250D3*
X2333250Y2457950D3*
X3250557Y1274227D3*
D22*
X3032000Y2270000D3*
D23*
X2782000D3*
Y2070000D3*
X3032000D3*
D24*
X2305000Y1799000D3*
X3509000D3*
D25*
X1202840Y4415543D3*
Y4138683D3*
Y3861823D3*
Y3584963D3*
Y3308103D3*
Y3031243D3*
Y2754383D3*
Y2477523D3*
Y2200663D3*
Y1923803D3*
Y1646943D3*
Y1370083D3*
D26*
X1889000Y4048000D3*
D27*
X2143000D3*
X2397000D3*
Y4302000D3*
X2143000D3*
X1889000D3*
D28*
X1762000Y1254000D3*
D29*
X1962000D3*
Y1454000D3*
X1762000D3*
D30*
X3667000Y4937000D3*
D31*
X3467000D3*
X3267000D3*
M02*
