M48
METRIC,0000.00
T01C0.483
T02C0.8
T03C0.9
T04C0.92
T05C1.14
T06C2.3
%
T01
X+003569Y+003470
X+003781Y+003764
X+003286Y+003785
X+003220Y+004057
X+003531Y+004201
X+002819Y+004302
X+002905Y+003778
X+003003Y+003480
X+003029Y+003353
X+002493Y+003068
X+002589Y+002847
X+002333Y+002458
X+002493Y+002143
X+002620Y+002070
X+003149Y+002551
X+003563Y+002544
X+003760Y+002980
X+002413Y+003317
X+002099Y+003290
X+002099Y+003163
X+001977Y+003439
X+001889Y+003639
X+001616Y+003725
X+001616Y+003534
X+001711Y+003258
X+001671Y+002972
X+002253Y+003639
X+002027Y+004434
X+001616Y+004434
X+001521Y+004279
X+001762Y+002022
X+001521Y+001549
X+003251Y+001274
T02
X+003667Y+004937
X+003467Y+004937
X+003267Y+004937
T03
X+001762Y+001254
X+001962Y+001254
X+001962Y+001454
X+001762Y+001454
T04
X+003032Y+002270
X+003032Y+002070
X+002782Y+002070
X+002782Y+002270
T05
X+001889Y+004048
X+002143Y+004048
X+002397Y+004048
X+002397Y+004302
X+002143Y+004302
X+001889Y+004302
T06
X+002305Y+001799
X+003509Y+001799
T00
M30
