G04 DipTrace 3.0.0.0*
G04 Top.gbr*
%MOMM*%
G04 #@! TF.FileFunction,Copper,L1,Top*
G04 #@! TF.Part,Single*
G04 #@! TA.AperFunction,Conductor*
%ADD13C,0.381*%
%ADD15R,1.7X0.5*%
%ADD16R,0.5X1.7*%
%ADD18R,1.6X3.15*%
%ADD19R,0.9X0.7*%
%ADD21R,1.2X1.2*%
G04 #@! TA.AperFunction,ComponentPad*
%ADD22R,1.6X1.6*%
%ADD23C,1.6*%
%ADD24C,3.5*%
%ADD25R,2.54X1.27*%
G04 #@! TA.AperFunction,ComponentPad*
%ADD26R,1.75X1.75*%
%ADD27C,1.75*%
%ADD28R,1.5X1.5*%
%ADD29C,1.5*%
%ADD30R,1.4X1.4*%
%ADD31C,1.4*%
%ADD32R,0.7X0.9*%
%ADD34R,5.5X2.0*%
G04 #@! TA.AperFunction,ViaPad*
%ADD35C,1.016*%
%FSLAX35Y35*%
G04*
G71*
G90*
G75*
G01*
G04 Top*
%LPD*%
X1962000Y1454000D2*
D13*
X2968500D1*
X3032000Y1517500D1*
Y2070000D1*
X3569200Y3469950D2*
X3413000D1*
Y3268000D1*
X3667000Y4201000D2*
X3530800D1*
X3029200Y3353250D2*
X2907450D1*
Y3406217D1*
X2905000Y3408670D1*
Y3667000D1*
X1938000Y3018000D2*
X1671250D1*
Y2972250D1*
X3413000Y3268000D2*
Y3219930D1*
X3259120Y3066050D1*
X2970960D1*
Y3001500D1*
X2907460Y2938000D1*
X2778000D1*
X2970960Y3066050D2*
X2907460D1*
Y3098000D1*
X2778000D1*
X3530800Y4201000D2*
X3286000D1*
X1671250Y2972250D2*
D3*
X2818560Y4302000D2*
X2910203Y4210360D1*
X2908000Y4175000D1*
X2818560Y4302000D2*
D3*
X2908000Y4429000D2*
Y4391440D1*
X2818560Y4302000D1*
X2638000Y3478000D2*
Y4492500D1*
X2577797Y4552703D1*
X1202840D1*
X1520700Y4279140D2*
X1202840D1*
Y4275843D1*
X2493250Y3067500D2*
X2558000Y3132247D1*
Y3478000D1*
X2478000D2*
Y3820200D1*
X2414500Y3883700D1*
X1752840D1*
X1637557Y3998983D1*
X1202840D1*
X2398000Y3478000D2*
Y3756700D1*
X2347953Y3806747D1*
X1715623D1*
X1654003Y3850273D1*
X1503970D1*
X1375820Y3722123D1*
X1202840D1*
X1615950Y3534450D2*
X1466930D1*
X1377740Y3445263D1*
X1202840D1*
X2099200Y3162750D2*
X2254500D1*
X2318000Y3226247D1*
Y3478000D1*
X1976800Y3439200D2*
Y3417487D1*
X1632747D1*
X1383660Y3168403D1*
X1202840D1*
X2253250Y3639200D2*
X2238000Y3623950D1*
Y3478000D1*
X1938000Y2858000D2*
X1573650D1*
X1540110Y2891543D1*
X1202840D1*
Y2614683D2*
X1434327D1*
X1597647Y2778000D1*
X1938000D1*
X1202840Y2337823D2*
X1360480D1*
X1593497Y2570840D1*
X2078000D1*
Y2638000D1*
X1202840Y2060963D2*
X1438170D1*
X1480563Y2103357D1*
Y2355160D1*
X1616450Y2491043D1*
X2158000D1*
Y2638000D1*
X1615950Y3724950D2*
D3*
X2027240Y4433950D2*
Y4470517D1*
X1615950D1*
Y4433950D1*
Y3724950D2*
X1625460Y3734460D1*
X2094500D1*
X2158000Y3670960D1*
Y3478000D1*
X1889000Y3639210D2*
X2078000D1*
Y3478000D1*
X2099200Y3289750D2*
X2050950Y3338000D1*
X1938000D1*
X2588500Y2847450D2*
X2528800D1*
X2478000Y2796650D1*
Y2638000D1*
X2905000Y3778200D2*
Y3921000D1*
X3035000D2*
Y3667000D1*
X3219700Y4057200D2*
X3530800D1*
X3667000Y3921000D1*
X1762000Y2021800D2*
Y2143000D1*
X3002700Y3480250D2*
D3*
X3035000Y3667000D2*
Y3512547D1*
X3002700Y3480250D1*
X3286000Y3784800D2*
Y3921000D1*
X2619700Y2070000D2*
Y2209500D1*
X2556200Y2273000D1*
X2016000D1*
X2492700Y2143000D2*
X2016000D1*
X3149197Y2551360D2*
X2638000D1*
Y2638000D1*
X3667000Y4937000D2*
X3781450Y4822550D1*
Y3764400D1*
X3032000Y2270000D2*
X2906450Y2144450D1*
Y1636950D1*
X2842950Y1573450D1*
X2035323D1*
X1642560Y1966217D1*
Y2273000D1*
X1762000D1*
X3562850Y2544300D2*
D3*
X1711200Y3258000D2*
X1938000D1*
X2778000Y3178000D2*
X2627450D1*
Y3018000D1*
X2778000D1*
X3781450Y3764400D2*
X3582250Y3565200D1*
X3254260D1*
X3190760Y3501700D1*
Y3178000D1*
X2778000D1*
X3413000Y2778000D2*
D3*
X3562850Y2544300D2*
X3460507Y2646643D1*
Y2778000D1*
X3413000D1*
X2778000Y3338000D2*
Y4032050D1*
X2841500Y4095550D1*
X2997450D1*
Y4619500D1*
X2933950Y4683000D1*
X2335450D1*
X2081450Y4937000D1*
X1762000D1*
X2841500Y4095550D2*
X2778000D1*
Y4175000D1*
Y4429000D2*
Y4556000D1*
X2714500Y4619500D1*
X1506050D1*
X1375947Y4749603D1*
Y5142737D1*
X2152683D1*
X2358420Y4937000D1*
X2712000D1*
X3124450D1*
Y3258000D1*
X2778000D1*
X2413250Y3316800D2*
X2398000Y3301550D1*
Y2638000D1*
X2558000D2*
Y2457950D1*
X2586570Y2429383D1*
X3173780D1*
Y1435543D1*
X2850963Y1112727D1*
X1650447D1*
X1532790Y1230383D1*
X1202840D1*
X3759700Y2979950D2*
Y3002473D1*
X3318867D1*
X3174393Y2858000D1*
X2778000D1*
X2238000Y2638000D2*
Y2462053D1*
X2176313Y2400363D1*
X1638363D1*
X1555507Y2317507D1*
Y1980957D1*
X1358653Y1784103D1*
X1202840D1*
X1520700Y1549250D2*
X1478693Y1507243D1*
X1202840D1*
X2333250Y2457950D2*
X2318000Y2473200D1*
Y2638000D1*
X3250557Y1274227D2*
Y2721753D1*
X3194310Y2778000D1*
X2778000D1*
D35*
X3569200Y3469950D3*
X3029200Y3353250D3*
X1671250Y2972250D3*
X3530800Y4201000D3*
X2818560Y4302000D3*
X1520700Y4279140D3*
X2493250Y3067500D3*
X1615950Y3534450D3*
X2099200Y3162750D3*
X1976800Y3439200D3*
X2253250Y3639200D3*
X1615950Y3724950D3*
Y4433950D3*
X2027240D3*
X1889000Y3639210D3*
X2099200Y3289750D3*
X2588500Y2847450D3*
X2905000Y3778200D3*
X3002700Y3480250D3*
X3219700Y4057200D3*
X1762000Y2021800D3*
X3286000Y3784800D3*
X2619700Y2070000D3*
X2492700Y2143000D3*
X3149197Y2551360D3*
X3562850Y2544300D3*
X1711200Y3258000D3*
X3781450Y3764400D3*
X2413250Y3316800D3*
X3759700Y2979950D3*
X1520700Y1549250D3*
X2333250Y2457950D3*
X3250557Y1274227D3*
D15*
X2778000Y2778000D3*
Y2858000D3*
Y2938000D3*
Y3018000D3*
Y3098000D3*
Y3178000D3*
Y3258000D3*
Y3338000D3*
D16*
X2638000Y3478000D3*
X2558000D3*
X2478000D3*
X2398000D3*
X2318000D3*
X2238000D3*
X2158000D3*
X2078000D3*
D15*
X1938000Y3338000D3*
Y3258000D3*
Y3178000D3*
Y3098000D3*
Y3018000D3*
Y2938000D3*
Y2858000D3*
Y2778000D3*
D16*
X2078000Y2638000D3*
X2158000D3*
X2238000D3*
X2318000D3*
X2398000D3*
X2478000D3*
X2558000D3*
X2638000D3*
D18*
X3413000Y2778000D3*
Y3268000D3*
D19*
X2778000Y4175000D3*
X2908000D3*
X2778000Y4429000D3*
X2908000D3*
D21*
X3286000Y3921000D3*
Y4201000D3*
X3667000Y3921000D3*
Y4201000D3*
D22*
X3032000Y2270000D3*
D23*
X2782000D3*
Y2070000D3*
X3032000D3*
D24*
X2305000Y1799000D3*
X3509000D3*
D25*
X1202840Y4552703D3*
Y4275843D3*
Y3998983D3*
Y3722123D3*
Y3445263D3*
Y3168403D3*
Y2891543D3*
Y2614683D3*
Y2337823D3*
Y2060963D3*
Y1784103D3*
Y1507243D3*
Y1230383D3*
D26*
X1889000Y4048000D3*
D27*
X2143000D3*
X2397000D3*
Y4302000D3*
X2143000D3*
X1889000D3*
D28*
X1762000Y1254000D3*
D29*
X1962000D3*
Y1454000D3*
X1762000D3*
D30*
X3667000Y4937000D3*
D31*
X3467000D3*
X3267000D3*
D19*
X2905000Y3921000D3*
X3035000D3*
D32*
X2016000Y2143000D3*
Y2273000D3*
X1762000Y2143000D3*
Y2273000D3*
D19*
X2905000Y3667000D3*
X3035000D3*
D34*
X1762000Y4937000D3*
X2712000D3*
M02*
