G04 DipTrace 3.0.0.0*
G04 TopMask.gbr*
%MOMM*%
G04 #@! TF.FileFunction,Soldermask,Top*
G04 #@! TF.Part,Single*
%ADD22R,1.6X1.6*%
%ADD23C,1.6*%
%ADD30R,1.4X1.4*%
%ADD45R,5.7X2.2*%
%ADD47R,0.9X1.1*%
%ADD50C,1.7*%
%ADD52R,1.7X1.7*%
%ADD54C,1.95*%
%ADD56R,1.95X1.95*%
%ADD58R,2.74X1.47*%
%ADD60C,3.7*%
%ADD62C,1.8*%
%ADD63R,1.8X1.8*%
%ADD65R,1.1X0.9*%
%ADD67R,1.8X3.35*%
%ADD69R,0.7X1.9*%
%ADD71R,1.9X0.7*%
%FSLAX35Y35*%
G04*
G71*
G90*
G75*
G01*
G04 TopMask*
%LPD*%
D71*
X2778000Y2778000D3*
Y2858000D3*
Y2938000D3*
Y3018000D3*
Y3098000D3*
Y3178000D3*
Y3258000D3*
Y3338000D3*
D69*
X2638000Y3478000D3*
X2558000D3*
X2478000D3*
X2398000D3*
X2318000D3*
X2238000D3*
X2158000D3*
X2078000D3*
D71*
X1938000Y3338000D3*
Y3258000D3*
Y3178000D3*
Y3098000D3*
Y3018000D3*
Y2938000D3*
Y2858000D3*
Y2778000D3*
D69*
X2078000Y2638000D3*
X2158000D3*
X2238000D3*
X2318000D3*
X2398000D3*
X2478000D3*
X2558000D3*
X2638000D3*
D67*
X3413000Y2778000D3*
Y3268000D3*
D65*
X2778000Y4175000D3*
X2908000D3*
X2778000Y4429000D3*
X2908000D3*
D30*
X3286000Y3921000D3*
Y4201000D3*
X3667000Y3921000D3*
Y4201000D3*
D63*
X3032000Y2270000D3*
D62*
X2782000D3*
Y2070000D3*
X3032000D3*
D60*
X2305000Y1799000D3*
X3509000D3*
D58*
X1202840Y4552703D3*
Y4275843D3*
Y3998983D3*
Y3722123D3*
Y3445263D3*
Y3168403D3*
Y2891543D3*
Y2614683D3*
Y2337823D3*
Y2060963D3*
Y1784103D3*
Y1507243D3*
Y1230383D3*
D56*
X1889000Y4048000D3*
D54*
X2143000D3*
X2397000D3*
Y4302000D3*
X2143000D3*
X1889000D3*
D52*
X1762000Y1254000D3*
D50*
X1962000D3*
Y1454000D3*
X1762000D3*
D22*
X3667000Y4937000D3*
D23*
X3467000D3*
X3267000D3*
D65*
X2905000Y3921000D3*
X3035000D3*
D47*
X2016000Y2143000D3*
Y2273000D3*
X1762000Y2143000D3*
Y2273000D3*
D65*
X2905000Y3667000D3*
X3035000D3*
D45*
X1762000Y4937000D3*
X2712000D3*
M02*
