G04 DipTrace 3.0.0.0*
G04 TopSilk.gbr*
%MOMM*%
G04 #@! TF.FileFunction,Legend,Top*
G04 #@! TF.Part,Single*
%ADD10C,0.25*%
%ADD14O,0.42016X0.41713*%
%ADD17O,0.59994X0.5996*%
%ADD20O,0.39994X0.40037*%
%ADD33O,0.3915X0.39347*%
%ADD73C,0.11765*%
%ADD74C,0.15686*%
%FSLAX35Y35*%
G04*
G71*
G90*
G75*
G01*
G04 TopSilk*
%LPD*%
X2647971Y2772978D2*
D10*
X2068029D1*
Y3353021D1*
X2647971D1*
Y2772978D1*
D14*
X2779170Y2693945D3*
G36*
X2647971Y2772978D2*
Y2852970D1*
X2567979Y2772978D1*
X2647971D1*
G37*
X3083000Y3352955D2*
D10*
X3287996Y3353038D1*
X3083000Y3352955D2*
Y2803032D1*
X3193022Y2693064D2*
X3083000Y2803032D1*
X3193022Y2693064D2*
X3287996D1*
X3538004Y3353038D2*
X3743000Y3352955D1*
Y2803032D1*
X3632978Y2693064D2*
X3743000Y2803032D1*
X3538004Y2693064D2*
X3632978D1*
D17*
X3268031Y2632980D3*
X3196008Y4001018D2*
D10*
Y4120989D1*
X3375998Y4001018D2*
Y4120989D1*
D20*
X3286003Y3816018D3*
X3577008Y4001018D2*
D10*
Y4120989D1*
X3756998Y4001018D2*
Y4120989D1*
D20*
X3667003Y3816018D3*
X2307001Y2341000D2*
D10*
X2656961D1*
X2307001Y771000D2*
Y1576922D1*
Y2020936D2*
Y2341000D1*
X3506999D2*
Y2020936D1*
Y1576922D2*
Y771000D1*
X2307001D1*
X3506999Y2341000D2*
X3187031D1*
X1758000Y4433000D2*
X2528000D1*
Y3917000D1*
X1758000D1*
Y4433000D1*
X1642000Y1574000D2*
X2082000D1*
Y1134000D1*
X1642000D1*
Y1574000D1*
X3767000Y4827000D2*
X3167000D1*
X3767000Y5047000D2*
X3167000D1*
X3767000Y4827000D2*
Y5047000D1*
X3167000Y4827000D2*
Y5047000D1*
D33*
X1542275Y5093237D3*
X1667000Y5107030D2*
D10*
Y5182000D1*
X2807000Y4692000D2*
Y4766970D1*
X1667000Y4692000D2*
X2807000D1*
X1667000D2*
Y4766970D1*
X2807000Y5107030D2*
Y5182000D1*
X1667000D2*
X2807000D1*
X2513726Y3690142D2*
D73*
Y3635476D1*
X2517348Y3624526D1*
X2524676Y3617283D1*
X2535626Y3613576D1*
X2542870D1*
X2553820Y3617283D1*
X2561148Y3624526D1*
X2564770Y3635476D1*
Y3690142D1*
X2588300Y3675486D2*
X2595628Y3679192D1*
X2606578Y3690058D1*
Y3613576D1*
X3403046Y3518898D2*
X3399424Y3526142D1*
X3392096Y3533470D1*
X3384852Y3537092D1*
X3370280D1*
X3362952Y3533470D1*
X3355709Y3526142D1*
X3352002Y3518898D1*
X3348380Y3507948D1*
Y3489670D1*
X3352002Y3478804D1*
X3355709Y3471476D1*
X3362952Y3464232D1*
X3370280Y3460526D1*
X3384852D1*
X3392096Y3464232D1*
X3399424Y3471476D1*
X3403046Y3478804D1*
X3430282Y3518814D2*
Y3522436D1*
X3433904Y3529764D1*
X3437526Y3533386D1*
X3444854Y3537008D1*
X3459426D1*
X3466670Y3533386D1*
X3470291Y3529764D1*
X3473998Y3522436D1*
Y3515192D1*
X3470291Y3507864D1*
X3463048Y3496998D1*
X3426576Y3460526D1*
X3477620D1*
X2997673Y4329951D2*
X2994051Y4337195D1*
X2986723Y4344523D1*
X2979479Y4348145D1*
X2964907D1*
X2957579Y4344523D1*
X2950335Y4337195D1*
X2946629Y4329951D1*
X2943007Y4319001D1*
Y4300723D1*
X2946629Y4289858D1*
X2950335Y4282530D1*
X2957579Y4275286D1*
X2964907Y4271580D1*
X2979479D1*
X2986723Y4275286D1*
X2994051Y4282530D1*
X2997673Y4289858D1*
X3028530Y4348061D2*
X3068540D1*
X3046724Y4318917D1*
X3057674D1*
X3064918Y4315295D1*
X3068540Y4311673D1*
X3072246Y4300723D1*
Y4293480D1*
X3068540Y4282530D1*
X3061296Y4275201D1*
X3050346Y4271580D1*
X3039396D1*
X3028530Y4275201D1*
X3024908Y4278908D1*
X3021202Y4286151D1*
X2990552Y4562708D2*
X2986930Y4569952D1*
X2979602Y4577280D1*
X2972358Y4580902D1*
X2957786D1*
X2950458Y4577280D1*
X2943214Y4569952D1*
X2939508Y4562708D1*
X2935886Y4551758D1*
Y4533480D1*
X2939508Y4522614D1*
X2943214Y4515286D1*
X2950458Y4508042D1*
X2957786Y4504336D1*
X2972358D1*
X2979602Y4508042D1*
X2986930Y4515286D1*
X2990552Y4522614D1*
X3050553Y4504336D2*
Y4580818D1*
X3014081Y4529858D1*
X3068747D1*
X3223195Y4372592D2*
Y4296026D1*
X3248717D1*
X3259667Y4299732D1*
X3266995Y4306976D1*
X3270617Y4314304D1*
X3274239Y4325170D1*
Y4343448D1*
X3270617Y4354398D1*
X3266995Y4361642D1*
X3259667Y4368970D1*
X3248717Y4372592D1*
X3223195D1*
X3305096Y4372508D2*
X3345106D1*
X3323290Y4343364D1*
X3334240D1*
X3341484Y4339742D1*
X3345106Y4336120D1*
X3348812Y4325170D1*
Y4317926D1*
X3345106Y4306976D1*
X3337862Y4299648D1*
X3326912Y4296026D1*
X3315962D1*
X3305096Y4299648D1*
X3301474Y4303354D1*
X3297768Y4310598D1*
X3602384Y4372592D2*
Y4296026D1*
X3627906D1*
X3638856Y4299732D1*
X3646184Y4306976D1*
X3649806Y4314304D1*
X3653428Y4325170D1*
Y4343448D1*
X3649806Y4354398D1*
X3646184Y4361642D1*
X3638856Y4368970D1*
X3627906Y4372592D1*
X3602384D1*
X3713429Y4296026D2*
Y4372508D1*
X3676957Y4321548D1*
X3731623D1*
X2904332Y2461592D2*
Y2403304D1*
X2900710Y2392354D1*
X2897004Y2388732D1*
X2889760Y2385026D1*
X2882432D1*
X2875188Y2388732D1*
X2871566Y2392354D1*
X2867860Y2403304D1*
Y2410548D1*
X2927862Y2446936D2*
X2935190Y2450642D1*
X2946140Y2461508D1*
Y2385026D1*
X1183789Y4727795D2*
Y4669508D1*
X1180167Y4658558D1*
X1176461Y4654936D1*
X1169217Y4651230D1*
X1161889D1*
X1154645Y4654936D1*
X1151024Y4658558D1*
X1147317Y4669508D1*
Y4676751D1*
X1211025Y4709517D2*
Y4713139D1*
X1214647Y4720467D1*
X1218269Y4724089D1*
X1225597Y4727711D1*
X1240169D1*
X1247413Y4724089D1*
X1251035Y4720467D1*
X1254741Y4713139D1*
Y4705895D1*
X1251035Y4698567D1*
X1243791Y4687701D1*
X1207319Y4651230D1*
X1258363D1*
X2272643Y4523349D2*
Y4465061D1*
X2269021Y4454111D1*
X2265315Y4450489D1*
X2258071Y4446783D1*
X2250743D1*
X2243499Y4450489D1*
X2239877Y4454111D1*
X2236171Y4465061D1*
Y4472305D1*
X2303500Y4523264D2*
X2343510D1*
X2321694Y4494121D1*
X2332644D1*
X2339888Y4490499D1*
X2343510Y4486877D1*
X2347216Y4475927D1*
Y4468683D1*
X2343510Y4457733D1*
X2336266Y4450405D1*
X2325316Y4446783D1*
X2314366D1*
X2303500Y4450405D1*
X2299878Y4454111D1*
X2296172Y4461355D1*
X1841138Y1685592D2*
Y1627304D1*
X1837516Y1616354D1*
X1833810Y1612732D1*
X1826566Y1609026D1*
X1819238D1*
X1811995Y1612732D1*
X1808373Y1616354D1*
X1804666Y1627304D1*
Y1634548D1*
X1901140Y1609026D2*
Y1685508D1*
X1864668Y1634548D1*
X1919334D1*
X3447949Y5158592D2*
Y5100304D1*
X3444327Y5089354D1*
X3440621Y5085732D1*
X3433377Y5082026D1*
X3426049D1*
X3418805Y5085732D1*
X3415184Y5089354D1*
X3411477Y5100304D1*
Y5107548D1*
X3515195Y5158508D2*
X3478807D1*
X3475185Y5125742D1*
X3478807Y5129364D1*
X3489757Y5133070D1*
X3500623D1*
X3511573Y5129364D1*
X3518901Y5122120D1*
X3522523Y5111170D1*
Y5103926D1*
X3518901Y5092976D1*
X3511573Y5085648D1*
X3500623Y5082026D1*
X3489757D1*
X3478807Y5085648D1*
X3475185Y5089354D1*
X3471479Y5096598D1*
X2925272Y4041740D2*
X2958038D1*
X2968988Y4045446D1*
X2972694Y4049068D1*
X2976316Y4056312D1*
Y4063640D1*
X2972694Y4070884D1*
X2968988Y4074590D1*
X2958038Y4078212D1*
X2925272D1*
Y4001646D1*
X2950794Y4041740D2*
X2976316Y4001646D1*
X2999845Y4063556D2*
X3007173Y4067262D1*
X3018123Y4078128D1*
Y4001646D1*
X3089075Y4052690D2*
X3085369Y4041740D1*
X3078125Y4034412D1*
X3067175Y4030790D1*
X3063553D1*
X3052603Y4034412D1*
X3045359Y4041740D1*
X3041653Y4052690D1*
Y4056312D1*
X3045359Y4067262D1*
X3052603Y4074506D1*
X3063553Y4078128D1*
X3067175D1*
X3078125Y4074506D1*
X3085369Y4067262D1*
X3089075Y4052690D1*
Y4034412D1*
X3085369Y4016218D1*
X3078125Y4005268D1*
X3067175Y4001646D1*
X3059931D1*
X3048981Y4005268D1*
X3045359Y4012596D1*
X1905880Y2107905D2*
Y2140671D1*
X1902174Y2151621D1*
X1898552Y2155327D1*
X1891308Y2158949D1*
X1883980D1*
X1876736Y2155327D1*
X1873030Y2151621D1*
X1869408Y2140671D1*
Y2107905D1*
X1945974D1*
X1905880Y2133427D2*
X1945974Y2158949D1*
X1887686Y2186184D2*
X1884064D1*
X1876736Y2189806D1*
X1873114Y2193428D1*
X1869492Y2200756D1*
Y2215328D1*
X1873114Y2222572D1*
X1876736Y2226194D1*
X1884064Y2229900D1*
X1891308D1*
X1898636Y2226194D1*
X1909502Y2218950D1*
X1945974Y2182478D1*
Y2233522D1*
X1869492Y2278951D2*
X1873114Y2268001D1*
X1884064Y2260673D1*
X1902258Y2257051D1*
X1913208D1*
X1931402Y2260673D1*
X1942352Y2268001D1*
X1945974Y2278951D1*
Y2286195D1*
X1942352Y2297145D1*
X1931402Y2304389D1*
X1913208Y2308095D1*
X1902258D1*
X1884064Y2304389D1*
X1873114Y2297145D1*
X1869492Y2286195D1*
Y2278951D1*
X1884064Y2304389D2*
X1931402Y2260673D1*
X1651880Y2124288D2*
Y2157054D1*
X1648174Y2168004D1*
X1644552Y2171710D1*
X1637308Y2175332D1*
X1629980D1*
X1622736Y2171710D1*
X1619030Y2168004D1*
X1615408Y2157054D1*
Y2124288D1*
X1691974D1*
X1651880Y2149810D2*
X1691974Y2175332D1*
X1633686Y2202567D2*
X1630064D1*
X1622736Y2206189D1*
X1619114Y2209811D1*
X1615492Y2217139D1*
Y2231711D1*
X1619114Y2238955D1*
X1622736Y2242577D1*
X1630064Y2246283D1*
X1637308D1*
X1644636Y2242577D1*
X1655502Y2235333D1*
X1691974Y2198861D1*
Y2249905D1*
X1630064Y2273434D2*
X1626358Y2280762D1*
X1615492Y2291712D1*
X1691974D1*
X2997358Y3787740D2*
X3030124D1*
X3041074Y3791446D1*
X3044780Y3795068D1*
X3048402Y3802312D1*
Y3809640D1*
X3044780Y3816884D1*
X3041074Y3820590D1*
X3030124Y3824212D1*
X2997358D1*
Y3747646D1*
X3022880Y3787740D2*
X3048402Y3747646D1*
X3075638Y3805934D2*
Y3809556D1*
X3079259Y3816884D1*
X3082881Y3820506D1*
X3090209Y3824128D1*
X3104781D1*
X3112025Y3820506D1*
X3115647Y3816884D1*
X3119353Y3809556D1*
Y3802312D1*
X3115647Y3794984D1*
X3108403Y3784118D1*
X3071931Y3747646D1*
X3122975D1*
X3190220Y3824128D2*
X3153833D1*
X3150211Y3791362D1*
X3153833Y3794984D1*
X3164783Y3798690D1*
X3175649D1*
X3186599Y3794984D1*
X3193927Y3787740D1*
X3197549Y3776790D1*
Y3769546D1*
X3193927Y3758596D1*
X3186599Y3751268D1*
X3175649Y3747646D1*
X3164783D1*
X3153833Y3751268D1*
X3150211Y3754974D1*
X3146505Y3762218D1*
X2186952Y5293592D2*
X2216096Y5257120D1*
Y5217026D1*
X2245240Y5293592D2*
X2216096Y5257120D1*
X2268770Y5278936D2*
X2276098Y5282642D1*
X2287048Y5293508D1*
Y5217026D1*
X3769286Y1069373D2*
D74*
X3837344D1*
X3788715D2*
X3774115Y1083973D1*
X3769286Y1093744D1*
Y1108232D1*
X3774115Y1118003D1*
X3788715Y1122832D1*
X3837345D1*
X3788715D2*
X3774115Y1137432D1*
X3769286Y1147203D1*
Y1161690D1*
X3774115Y1171461D1*
X3788715Y1176403D1*
X3837345Y1176402D1*
X3735257Y1207775D2*
X3837345D1*
X3769286Y1256404D2*
X3817915Y1207775D1*
X3798486Y1227204D2*
X3837344Y1261233D1*
X3735257Y1292606D2*
X3837344D1*
X3783886D2*
X3774115Y1302377D1*
X3769286Y1312035D1*
Y1326635D1*
X3774115Y1336294D1*
X3783886Y1346064D1*
X3798486Y1350894D1*
X3808144D1*
X3822744Y1346064D1*
X3832403Y1336294D1*
X3837344Y1326635D1*
Y1312035D1*
X3832403Y1302377D1*
X3822744Y1292606D1*
X3769286Y1406525D2*
X3774115Y1396866D1*
X3783886Y1387095D1*
X3798486Y1382266D1*
X3808144D1*
X3822744Y1387095D1*
X3832403Y1396866D1*
X3837344Y1406525D1*
Y1421125D1*
X3832403Y1430895D1*
X3822744Y1440554D1*
X3808144Y1445495D1*
X3798486D1*
X3783886Y1440554D1*
X3774115Y1430895D1*
X3769286Y1421125D1*
Y1406525D1*
Y1476868D2*
X3837344Y1530326D1*
X3769286D2*
X3837344Y1476868D1*
X3827574Y1566528D2*
X3832515Y1561699D1*
X3837344Y1566528D1*
X3832515Y1571470D1*
X3827574Y1566528D1*
X3769286Y1627101D2*
X3774115Y1617442D1*
X3783886Y1607672D1*
X3798486Y1602842D1*
X3808144D1*
X3822744Y1607672D1*
X3832403Y1617442D1*
X3837344Y1627101D1*
Y1641701D1*
X3832403Y1651472D1*
X3822744Y1661130D1*
X3808144Y1666072D1*
X3798486D1*
X3783886Y1661130D1*
X3774115Y1651472D1*
X3769286Y1641701D1*
Y1627101D1*
Y1697444D2*
X3837344D1*
X3798486D2*
X3783886Y1702386D1*
X3774115Y1712044D1*
X3769286Y1721815D1*
Y1736415D1*
X3774115Y1826075D2*
X3851944D1*
X3866432Y1821246D1*
X3871374Y1816417D1*
X3876203Y1806646D1*
Y1792046D1*
X3871374Y1782387D1*
X3788715Y1826075D2*
X3779057Y1816417D1*
X3774115Y1806646D1*
Y1792046D1*
X3779057Y1782387D1*
X3788715Y1772617D1*
X3803315Y1767787D1*
X3813086D1*
X3827574Y1772617D1*
X3837344Y1782387D1*
X3842174Y1792046D1*
Y1806646D1*
X3837344Y1816417D1*
X3827574Y1826075D1*
X3743413Y1963127D2*
X3845501D1*
X3777443Y2011756D2*
X3826072Y1963127D1*
X3806643Y1982556D2*
X3845501Y2016585D1*
X3743414Y2047958D2*
X3845501D1*
X3792043D2*
X3782272Y2057728D1*
X3777443Y2067387D1*
Y2081987D1*
X3782272Y2091645D1*
X3792043Y2101416D1*
X3806643Y2106245D1*
X3816301D1*
X3830901Y2101416D1*
X3840560Y2091645D1*
X3845501Y2081987D1*
Y2067387D1*
X3840560Y2057728D1*
X3830901Y2047958D1*
X3743414Y2195906D2*
X3845501Y2195905D1*
X3792043D2*
X3782272Y2186247D1*
X3777443Y2176476D1*
Y2161876D1*
X3782272Y2152218D1*
X3792043Y2142447D1*
X3806643Y2137618D1*
X3816301D1*
X3830901Y2142447D1*
X3840560Y2152218D1*
X3845501Y2161876D1*
Y2176476D1*
X3840560Y2186247D1*
X3830901Y2195905D1*
X3777443Y2326035D2*
X3845501Y2355235D1*
X3777443Y2384323D1*
X3762955Y2415695D2*
X3758013Y2425466D1*
X3743526Y2440066D1*
X3845501D1*
X3835730Y2476268D2*
X3840672Y2471439D1*
X3845501Y2476268D1*
X3840672Y2481209D1*
X3835730Y2476268D1*
X3743526Y2541782D2*
X3748355Y2527182D1*
X3762955Y2517411D1*
X3787213Y2512582D1*
X3801813D1*
X3826072Y2517411D1*
X3840672Y2527182D1*
X3845501Y2541782D1*
Y2551440D1*
X3840672Y2566040D1*
X3826072Y2575699D1*
X3801813Y2580640D1*
X3787213D1*
X3762955Y2575699D1*
X3748355Y2566040D1*
X3743526Y2551440D1*
Y2541782D1*
X3762955Y2575699D2*
X3826072Y2517411D1*
M02*
